<?xml version="1.0" standalone="no"?>
<!DOCTYPE svg PUBLIC "-//W3C//DTD SVG 20010904//EN"
 "http://www.w3.org/TR/2001/REC-SVG-20010904/DTD/svg10.dtd">
<svg version="1.0" xmlns="http://www.w3.org/2000/svg"
 width="360.000000pt" height="360.000000pt" viewBox="0 0 360.000000 360.000000"
 preserveAspectRatio="xMidYMid meet">
<metadata>
Created by potrace 1.14, written by Peter Selinger 2001-2017
</metadata>
<g transform="translate(0.000000,360.000000) scale(0.100000,-0.100000)"
fill="#000000" stroke="none">
<path d="M0 1800 l0 -1800 1800 0 1800 0 0 1800 0 1800 -1800 0 -1800 0 0
-1800z m931 1323 c8 -10 23 -35 34 -57 24 -48 74 -90 127 -105 40 -12 166 -16
210 -7 13 3 88 20 168 38 121 27 166 33 270 33 121 0 127 -1 180 -31 41 -22
65 -46 95 -91 39 -59 41 -60 95 -66 240 -27 484 -217 583 -453 56 -132 58
-169 54 -774 -3 -599 -3 -597 -60 -719 -64 -139 -187 -277 -310 -345 -448
-251 -995 -5 -1109 499 -10 46 -13 184 -13 610 1 538 1 552 23 629 61 217 203
390 400 486 69 33 196 70 244 70 28 0 28 0 12 25 -9 13 -40 36 -70 51 -51 25
-61 26 -157 21 -61 -3 -158 -18 -242 -37 -180 -42 -337 -51 -416 -25 -64 21
-134 88 -167 157 -27 58 -28 84 -4 97 25 15 37 13 53 -6z"/>
<path d="M1950 2732 l-30 -30 0 -362 0 -362 29 -29 c16 -16 37 -29 46 -29 24
0 72 27 79 45 3 9 6 180 6 380 0 403 1 398 -67 411 -27 5 -37 1 -63 -24z"/>
<path d="M1765 2712 c-134 -53 -265 -165 -333 -284 -62 -108 -84 -198 -90
-360 l-5 -148 257 0 256 0 -7 28 c-5 15 -8 199 -8 410 0 210 0 382 0 382 0 -1
-32 -13 -70 -28z"/>
<path d="M2168 2358 c2 -232 -1 -393 -7 -410 l-10 -28 255 0 254 0 0 133 c0
153 -15 230 -65 332 -67 137 -177 244 -320 311 -124 58 -110 101 -107 -338z"/>
<path d="M1342 1458 l4 -383 27 -81 c67 -201 226 -361 428 -429 72 -24 100
-28 194 -28 132 -1 207 17 319 76 142 76 260 216 318 377 22 63 23 76 26 458
l3 392 -661 0 -661 0 3 -382z"/>
</g>
</svg>
